<svg id="Layer_1" data-name="Layer 1" xmlns="http://www.w3.org/2000/svg" viewBox="0 0 1108 461.13"><defs><style>.cls-1{fill:#ffc800;}.cls-2{fill:#787878;}.cls-3{font-size:95.2px;fill:#b31827;font-family:Arial-BoldMT, Arial;font-weight:700;}.cls-4{fill:#bc0000;}.cls-5{fill:#30424f;letter-spacing:0em;}</style></defs><polygon class="cls-1" points="565.73 314.99 518.13 309.04 487.88 266.75 614.32 266.75 593 302.1 565.73 314.99"/><polygon class="cls-1" points="0 199.66 2.33 196.26 361.75 265.82 346.65 266.75 0 199.66"/><path class="cls-1" d="M560.16,346.18c-17.19-6.66-38-9.63-67.26-9.63-2,0-4,0-6,0l.79-1.12-218-81.17.44-.33a8.25,8.25,0,0,1,7.86-1.16l214.81,80,2.44-2.83L157.87,179.44l.87-.55a8.23,8.23,0,0,1,7.79-.57L500.88,327.48l2.76-2.68-188.07-100,1.29-.69a8.3,8.3,0,0,1,7.75,0L509.8,322.58l3.08-2.52-283-179.31,1.65-.73a8.22,8.22,0,0,1,7.77.56L519.46,318.1l3.4-2.32L370.37,200l1.93-.72a8.27,8.27,0,0,1,7.87,1.16L529.83,314.09l3.69-2.1L313.43,109.3l2.11-.65a8.27,8.27,0,0,1,8,1.82L540.81,310.55l4-1.84L432.41,180.6l2.17-.54a8.25,8.25,0,0,1,8.19,2.57l109.55,124.9,4.21-1.55L408.92,90.35a3.45,3.45,0,0,1,2.2-5.34h0a3.46,3.46,0,0,1,3.51,1.44l149.63,218.6,4.42-1.24L502,171.5a3.45,3.45,0,0,1,2.6-5l.44-.06a3.44,3.44,0,0,1,3.57,1.86l68,134.79,4.59-.9L506,75.72a3.46,3.46,0,0,1,3-4.53l.82-.08a3.46,3.46,0,0,1,3.61,2.35l75.71,228.3,4.71-.55L571.28,164a3.45,3.45,0,0,1,3.25-4l1.06-.05a3.46,3.46,0,0,1,3.57,2.89L601.88,301l4.77-.18V70a3.46,3.46,0,0,1,3.46-3.46h1.13A3.46,3.46,0,0,1,614.7,70V300.8l4.77.18,22.72-138.11a3.45,3.45,0,0,1,3.57-2.89l1.06.05a3.45,3.45,0,0,1,3.25,4L627.51,301.21l4.71.55,75.71-228.3a3.46,3.46,0,0,1,3.61-2.35l.81.08a3.45,3.45,0,0,1,2.95,4.53L640.19,302.21l4.59.9,68-134.79a3.44,3.44,0,0,1,3.57-1.86l.44.06a3.45,3.45,0,0,1,2.6,5L652.67,303.81l4.41,1.24L806.73,86.45a3.43,3.43,0,0,1,3.5-1.44h0a3.45,3.45,0,0,1,2.2,5.34L664.83,306l4.21,1.55,109.55-124.9a8.25,8.25,0,0,1,8.19-2.57l2.16.54L676.58,308.72l4,1.84L897.8,110.47a8.27,8.27,0,0,1,8-1.82l2.11.65L687.82,312l3.69,2.1L841.18,200.43a8.27,8.27,0,0,1,7.87-1.16L851,200,698.48,315.78l3.4,2.32L982,140.58a8.24,8.24,0,0,1,7.78-.56l1.65.73-283,179.31,3.08,2.52,185.19-98.45a8.24,8.24,0,0,1,7.75,0l1.28.68-188.06,100,2.76,2.68,334.35-149.16a8.23,8.23,0,0,1,7.79.57l.87.55L726.13,330l2.42,2.83,214.82-80a8.25,8.25,0,0,1,7.86,1.16l.44.33-218,81.18.8,1.11c-2,0-4.05,0-6,0-29.24,0-50.06,3-67.25,9.63l-2.38-1.05-5.42-2-.46-.16-5.52-1.7a3.74,3.74,0,0,0-.45-.12l-6-1.5-6.45-1.26-6.65-1-6.77-.63-6.85-.31h-6.88l-6.85.31-6.78.63-6.65.94-6.46,1.26-6,1.48c-.15,0-.29.08-.44.12l-5.53,1.7a3.53,3.53,0,0,0-.46.15l-5.43,2Zm194.53-9.29a8.15,8.15,0,0,1-2.86.35c-3.45-.21-7-.37-10.6-.49l372.59-114.37a8.25,8.25,0,0,1,8,1.81h0ZM247.78,269.7,99.53,224.19h0a8.25,8.25,0,0,1,8-1.81L480.07,336.73c-3.81.1-7.72.24-11.7.4a8.07,8.07,0,0,1-2.76-.36Z" transform="translate(-59 -66.49)"/><polygon class="cls-1" points="746.23 265.82 1105.66 196.26 1108 199.66 761.33 266.75 746.23 265.82"/><path class="cls-1" d="M236.4,284.05l2.91-3.31L455.2,334.27c-4.33.22-8.76.46-13.33.72Z" transform="translate(-59 -66.49)"/><path class="cls-1" d="M770.79,334.27l215.89-53.53,2.91,3.31L784.12,335C779.55,334.73,775.12,334.49,770.79,334.27Z" transform="translate(-59 -66.49)"/><path class="cls-2" d="M610.7,386.26c-36,0-54.75-19.74-60.35-38.22l-.46-1.51-366.64-24.9c-3.19-.2-5.58-2.35-5.32-4.8.24-2.29,2.76-4.09,5.71-4.09l376.52,25.51.55,3.63c.23,1.47,6.19,35.48,50,35.48,44.19,0,49.79-34,50-35.48l.54-3.63,376-25.49c3.48,0,6,1.79,6.2,4.07.26,2.45-2.13,4.6-5.32,4.8l-366.64,24.9-.46,1.51C665.46,366.52,646.66,386.26,610.7,386.26Z" transform="translate(-59 -66.49)"/><text class="cls-3" transform="translate(101.77 425.29)">sunhill<tspan class="cls-4" x="306.76" y="0"> </tspan><tspan class="cls-5" x="333.21" y="0">international</tspan></text></svg>